<?xml version="1.0" standalone="no"?>
<!DOCTYPE svg PUBLIC "-//W3C//DTD SVG 20010904//EN"
 "http://www.w3.org/TR/2001/REC-SVG-20010904/DTD/svg10.dtd">
<svg version="1.0" xmlns="http://www.w3.org/2000/svg"
 width="700.000000pt" height="700.000000pt" viewBox="0 0 700.000000 700.000000"
 preserveAspectRatio="xMidYMid meet">
<metadata>
Created by potrace 1.11, written by Peter Selinger 2001-2013
</metadata>
<g transform="translate(0.000000,700.000000) scale(0.100000,-0.100000)"
fill="#000000" stroke="none">
<path d="M1783 5690 c-223 -58 -416 -254 -474 -477 -18 -74 -19 -124 -19
-1713 0 -1589 1 -1639 19 -1713 58 -225 253 -420 478 -478 74 -18 124 -19
1713 -19 1600 0 1639 0 1714 20 225 57 419 251 476 476 20 75 20 114 20 1714
0 1589 -1 1639 -19 1713 -58 225 -253 420 -478 478 -74 18 -123 19 -1717 18
-1574 0 -1644 -1 -1713 -19z m3350 -285 c97 -25 169 -77 223 -162 68 -104 64
-3 64 -1743 0 -1740 4 -1639 -64 -1743 -54 -85 -126 -137 -223 -162 -86 -23
-3180 -23 -3266 0 -97 25 -169 77 -223 162 -68 104 -64 3 -64 1743 0 1718 -3
1638 56 1732 38 61 62 86 121 124 102 66 0 63 1738 63 1368 1 1588 -1 1638
-14z"/>
<path d="M3770 4110 c-392 -375 -716 -680 -721 -678 -5 2 -113 102 -240 223
-127 121 -235 220 -239 220 -10 0 -560 -525 -559 -534 1 -8 1026 -985 1038
-989 7 -2 1665 1574 1944 1847 l58 57 -277 265 c-152 145 -280 265 -284 267
-4 2 -328 -304 -720 -678z"/>
<path d="M6702 216 l-293 -211 292 -3 c161 -1 294 -1 296 1 2 2 2 99 1 214
l-3 210 -293 -211z"/>
</g>
</svg>
